/* XPM */
static const char * seqedit_xpm[] = {
"48 48 59 1",
" 	c #69A671C669A6",
".	c #71C671C669A6",
"X	c #71C679E771C6",
"o	c #79E7820779E7",
"O	c #8617820779E7",
"+	c #8E388A288617",
"@	c #8E388A288E38",
"#	c #8E3892488E38",
"$	c #965892488E38",
"%	c #9E799A699658",
"&	c #9E799A699E79",
"*	c #A699A2899E79",
"=	c #A699A289A699",
"-	c #AEBAAAAAA699",
";	c #AEBAB2CAAEBA",
":	c #B6DAB2CAAEBA",
">	c #B6DAB2CAB6DA",
",	c #B6DABAEAB6DA",
"<	c #BEFBC30BBEFB",
"1	c #C71BC30BBEFB",
"2	c #C71BC30BC71B",
"3	c #CF3CCB2BCF3C",
"4	c #D75CD34CD75C",
"5	c #D75CD34CCF3C",
"6	c #DF7DDB6CD75C",
"7	c #DF7DDB6CDF7D",
"8	c #E79DE38DDF7D",
"9	c #E79DE38DE79D",
"0	c #EFBEE38DE79D",
"q	c #EFBEEBADE79D",
"w	c #EFBEEBADEFBE",
"e	c #618561856185",
"r	c #69A669A66185",
"t	c #000000000000",
"y	c #69A669A669A6",
"u	c #30C230C230C2",
"i	c #71C671C671C6",
"p	c #861782078617",
"a	c #410341034103",
"s	c #D75CCB2BCF3C",
"d	c #38E338E330C2",
"f	c #38E338E338E3",
"g	c #492449244924",
"h	c #79E779E779E7",
"j	c #492449244103",
"k	c #BEFBBAEABEFB",
"l	c #38E3410338E3",
"z	c #4103410338E3",
"x	c #965892489658",
"c	c #79E779E771C6",
"v	c #00000000FFFF",
"b	c #FFFF00000000",
"n	c #FFFFFFFFFFFF",
"m	c #CF3CCF3CCF3C",
"M	c #FFFF92480820",
"N	c #79E771C671C6",
"B	c #D75CD75CD75C",
"V	c #861779E78617",
"C	c #8E3882078E38",
" ..XoOO+@###$%&**=-;:::>>>,<<<123444555678990qww",
"..XoOO+@###$%&**=-;:::>>>,<<<123444555678990qwww",
".XoOO+@###$%&**=-;:::>>>,<<<123444555678990qwwww",
"XoOO+@###$er**=-;:::>>>,<<<123444555678990qwwwww",
"oOO+@###$%tt*=-;:::>>>,<<<123444555678990qwwwww9",
"OO+@###$%rtty-;:::>>>,<<<123444555678990qwwwww9>",
"O+@###$%&tuut;:::>>>,<<<123444555678990qwwwww9>2",
"+@###$%&*t=-ti::>>>,<<<Op@@@455+$78990qwwwww9>23",
"@###$%&*yt-;tt:>>>,<<oOtaaat@5+tt8990qwwwww9>23s",
"###$%&**td;:ftX>>,<<<tta444at5ttg990qwwwww9>23s3",
"##$%&**=t;:::tt>,<<<Ott44455t$tt990qwwwww9>23s33",
"#$%&**=.t:::>fth<<<1tta44555jttg90qwwwww9>23s332",
"$%&**=-tf::>>>tt<<12tt4455567tt90qwwwww9>23s332k",
"%&**=-it::>>>,lto123tt4555678tt0qwwwww9>23s332kk",
"&**=-;tf:>>>,<<tt234tt5556789ttqwwwww9>23s332kkk",
"**=-;:t:>>>,<<<zt@44tt5567899ttwwwww9>23s332kkk<",
"*=-;:it>>tttttt2tttttt+ttttt&ttttttttttttttttt<,",
"=-;::tf>>t333333at@3att33333ttt33&3323s333333t,*",
"-;::it>>,t3333333tt33ttx333&ttt&&tpppp3pppp33t*&",
";:::ttchopopp@@@@tt+3ggt%&&tggtttfpppp3pppp33t&&",
":::>ffflltzaaaaaaaaj333ggggg33ggf2pppp2pppp33t&x",
"::>>>,<<<t334445333333333333333323s3333333333txp",
":>>>,<<<1t3ttttttttttttttttttttttttttttttttt3tpp",
">>>,<<<11t3t3333333333333333332333333333333t3tpp",
">>,<<<123t3t3v3v3bbb3n3n333bbb3vvv3vvv33333t3tpO",
">,<<<1234t3t3v3v3b333n3n333b233v3v3v3v33333t3tOp",
",<<<12344t3t3vv33bb33n3n333bbs3vvv3vvv33333t3tpO",
"<<<123444t3t3v3v3b333n3n333b333vv33vv333333t3tOO",
"<<1234445t3t3v3v3bbb3n3nnn3bbb3v3v3v3v33333t3tOO",
"<12344455t3t33333333333333333333m3333333333t3tOO",
"123444555t3t3MMM3bbb3n3n333bbb3vvv3vvv33333t3tOh",
"234445556t3t3M333b333n3n333b233v3v3v3v33333t3thh",
"344455567t3t3MM33bb33n3n333bbs3vvv3vvv33333t3thN",
"444555678t3t3M333b333n3n333b333vv33vv333333t3tNN",
"445556789t3t3M333bbb3n3nnn3bbb3v3v3v3v33333t3tNN",
"455567899t3t3333333333333333333333333333333t3tNN",
"555678990t3t3v3v3bbb3n3n333bbb3vvv3vvv33333t3tNN",
"55678990qt3t3v3v3b333n3n333b233v3v3v3v33333t3tNi",
"5678990qwt3t3vv33bb33n3n333bbs3vvv3vvv33333t3tii",
"678990qwwt3t3v3v3b333n3n333b333vv33vv333B33t3tii",
"78990qwwwt3t3v3v3bbb3n3nnn3bbb3v3v3v3v33333t3tii",
"8990qwwwwt3ttttttttttttttttttttttttttttttttt3tiN",
"990qwwwwwt>233333333<333333333333333333333333tNN",
"90qwwwww9tttttttttttttttttttttttttttttttttttttNh",
"0qwwwww9>23s332kkk<,*&&xpppOpOOOOhhNNNNNiiiiNNhV",
"qwwwww9>23s332kkk<,*&&xpppOpOOOOhhNNNNNiiiiNNhVp",
"wwwww9>23s332kkk<,*&&xpppOpOOOOhhNNNNNiiiiNNhVpC",
"wwww9>23s332kkk<,*&&xpppOpOOOOhhNNNNNiiiiNNhVpC@"};
